<mxfile host="app.diagrams.net" modified="2023-09-13T18:05:42.062Z" agent="Mozilla/5.0 (Windows NT 10.0; Win64; x64) AppleWebKit/537.36 (KHTML, like Gecko) Chrome/114.0.0.0 YaBrowser/23.7.5.704 Yowser/2.5 Safari/537.36" etag="ExLNhurFOUU7hEXnhIyb" version="21.6.9" type="device">
  <diagram name="Страница — 1" id="NbxVSztTyOr-I37s3HLD">
    <mxGraphModel dx="1434" dy="791" grid="1" gridSize="10" guides="1" tooltips="1" connect="1" arrows="1" fold="1" page="1" pageScale="1" pageWidth="827" pageHeight="1169" math="0" shadow="0">
      <root>
        <mxCell id="0" />
        <mxCell id="1" parent="0" />
        <mxCell id="zNPXWROCoC7LcPEYfnL5-5" value="user" style="swimlane;childLayout=stackLayout;horizontal=1;startSize=50;horizontalStack=0;rounded=1;fontSize=14;fontStyle=0;strokeWidth=2;resizeParent=0;resizeLast=1;shadow=0;dashed=0;align=center;arcSize=4;whiteSpace=wrap;html=1;" vertex="1" parent="1">
          <mxGeometry x="580" y="360" width="160" height="120" as="geometry" />
        </mxCell>
        <mxCell id="zNPXWROCoC7LcPEYfnL5-6" value="&lt;u&gt;+ id&lt;/u&gt;&lt;br&gt;+ name&lt;br&gt;+ email&lt;br&gt;+password&lt;br&gt;" style="align=left;strokeColor=none;fillColor=none;spacingLeft=4;fontSize=12;verticalAlign=top;resizable=0;rotatable=0;part=1;html=1;" vertex="1" parent="zNPXWROCoC7LcPEYfnL5-5">
          <mxGeometry y="50" width="160" height="70" as="geometry" />
        </mxCell>
        <mxCell id="zNPXWROCoC7LcPEYfnL5-7" value="review&lt;br&gt;" style="swimlane;childLayout=stackLayout;horizontal=1;startSize=50;horizontalStack=0;rounded=1;fontSize=14;fontStyle=0;strokeWidth=2;resizeParent=0;resizeLast=1;shadow=0;dashed=0;align=center;arcSize=4;whiteSpace=wrap;html=1;" vertex="1" parent="1">
          <mxGeometry x="280" y="360" width="160" height="120" as="geometry" />
        </mxCell>
        <mxCell id="zNPXWROCoC7LcPEYfnL5-8" value="&lt;u&gt;+ review_id&lt;br&gt;&lt;/u&gt;+ rating&lt;br&gt;" style="align=left;strokeColor=none;fillColor=none;spacingLeft=4;fontSize=12;verticalAlign=top;resizable=0;rotatable=0;part=1;html=1;" vertex="1" parent="zNPXWROCoC7LcPEYfnL5-7">
          <mxGeometry y="50" width="160" height="70" as="geometry" />
        </mxCell>
        <mxCell id="zNPXWROCoC7LcPEYfnL5-9" value="category" style="swimlane;childLayout=stackLayout;horizontal=1;startSize=50;horizontalStack=0;rounded=1;fontSize=14;fontStyle=0;strokeWidth=2;resizeParent=0;resizeLast=1;shadow=0;dashed=0;align=center;arcSize=4;whiteSpace=wrap;html=1;" vertex="1" parent="1">
          <mxGeometry x="580" y="570" width="160" height="120" as="geometry" />
        </mxCell>
        <mxCell id="zNPXWROCoC7LcPEYfnL5-10" value="&lt;u&gt;+&lt;/u&gt;category&lt;u&gt;_id&lt;br&gt;&lt;/u&gt;+ rating" style="align=left;strokeColor=none;fillColor=none;spacingLeft=4;fontSize=12;verticalAlign=top;resizable=0;rotatable=0;part=1;html=1;" vertex="1" parent="zNPXWROCoC7LcPEYfnL5-9">
          <mxGeometry y="50" width="160" height="70" as="geometry" />
        </mxCell>
        <mxCell id="zNPXWROCoC7LcPEYfnL5-11" value="" style="whiteSpace=wrap;html=1;fontSize=14;fontStyle=0;startSize=50;rounded=1;strokeWidth=2;shadow=0;dashed=0;arcSize=4;" vertex="1" parent="zNPXWROCoC7LcPEYfnL5-9">
          <mxGeometry y="120" width="160" as="geometry" />
        </mxCell>
        <mxCell id="zNPXWROCoC7LcPEYfnL5-12" value="order" style="swimlane;childLayout=stackLayout;horizontal=1;startSize=50;horizontalStack=0;rounded=1;fontSize=14;fontStyle=0;strokeWidth=2;resizeParent=0;resizeLast=1;shadow=0;dashed=0;align=center;arcSize=4;whiteSpace=wrap;html=1;" vertex="1" parent="1">
          <mxGeometry x="280" y="570" width="160" height="120" as="geometry" />
        </mxCell>
        <mxCell id="zNPXWROCoC7LcPEYfnL5-13" value="&lt;u&gt;+ order_id&lt;/u&gt;&lt;br&gt;+ status&lt;br&gt;" style="align=left;strokeColor=none;fillColor=none;spacingLeft=4;fontSize=12;verticalAlign=top;resizable=0;rotatable=0;part=1;html=1;" vertex="1" parent="zNPXWROCoC7LcPEYfnL5-12">
          <mxGeometry y="50" width="160" height="70" as="geometry" />
        </mxCell>
        <mxCell id="zNPXWROCoC7LcPEYfnL5-14" value="basket" style="swimlane;childLayout=stackLayout;horizontal=1;startSize=50;horizontalStack=0;rounded=1;fontSize=14;fontStyle=0;strokeWidth=2;resizeParent=0;resizeLast=1;shadow=0;dashed=0;align=center;arcSize=4;whiteSpace=wrap;html=1;" vertex="1" parent="1">
          <mxGeometry x="580" y="160" width="160" height="120" as="geometry" />
        </mxCell>
        <mxCell id="zNPXWROCoC7LcPEYfnL5-15" value="&lt;u&gt;+ id&lt;/u&gt;&lt;br&gt;+ name&lt;br&gt;+ email&lt;br&gt;+password&lt;br&gt;" style="align=left;strokeColor=none;fillColor=none;spacingLeft=4;fontSize=12;verticalAlign=top;resizable=0;rotatable=0;part=1;html=1;" vertex="1" parent="zNPXWROCoC7LcPEYfnL5-14">
          <mxGeometry y="50" width="160" height="70" as="geometry" />
        </mxCell>
        <mxCell id="zNPXWROCoC7LcPEYfnL5-16" value="lawyer" style="swimlane;childLayout=stackLayout;horizontal=1;startSize=50;horizontalStack=0;rounded=1;fontSize=14;fontStyle=0;strokeWidth=2;resizeParent=0;resizeLast=1;shadow=0;dashed=0;align=center;arcSize=4;whiteSpace=wrap;html=1;" vertex="1" parent="1">
          <mxGeometry x="280" y="160" width="160" height="120" as="geometry" />
        </mxCell>
        <mxCell id="zNPXWROCoC7LcPEYfnL5-17" value="&lt;u&gt;+&lt;/u&gt;lawyer&lt;u&gt;_id&lt;br&gt;&lt;/u&gt;+ rating&lt;br&gt;" style="align=left;strokeColor=none;fillColor=none;spacingLeft=4;fontSize=12;verticalAlign=top;resizable=0;rotatable=0;part=1;html=1;" vertex="1" parent="zNPXWROCoC7LcPEYfnL5-16">
          <mxGeometry y="50" width="160" height="70" as="geometry" />
        </mxCell>
      </root>
    </mxGraphModel>
  </diagram>
</mxfile>
